<?xml version="1.0" encoding="UTF-8" standalone="no"?>
<!-- Created with Inkscape (http://www.inkscape.org/) -->

<svg
   width="400mm"
   height="400mm"
   viewBox="0 0 400 400"
   version="1.1"
   id="svg1"
   xml:space="preserve"
   inkscape:version="1.3.2 (091e20ef0f, 2023-11-25)"
   sodipodi:docname="guitarraFirebird.svg"
   xmlns:inkscape="http://www.inkscape.org/namespaces/inkscape"
   xmlns:sodipodi="http://sodipodi.sourceforge.net/DTD/sodipodi-0.dtd"
   xmlns="http://www.w3.org/2000/svg"
   xmlns:svg="http://www.w3.org/2000/svg"><sodipodi:namedview
     id="namedview1"
     pagecolor="#ffffff"
     bordercolor="#000000"
     borderopacity="0.25"
     inkscape:showpageshadow="2"
     inkscape:pageopacity="0.0"
     inkscape:pagecheckerboard="0"
     inkscape:deskcolor="#d1d1d1"
     inkscape:document-units="mm"
     showguides="true"
     inkscape:zoom="0.46113095"
     inkscape:cx="928.15283"
     inkscape:cy="808.88086"
     inkscape:window-width="1920"
     inkscape:window-height="1052"
     inkscape:window-x="0"
     inkscape:window-y="0"
     inkscape:window-maximized="1"
     inkscape:current-layer="layer1" /><defs
     id="defs1" /><g
     inkscape:label="Camada 1"
     inkscape:groupmode="layer"
     id="layer1"><path
       style="fill:#000000;fill-opacity:0;stroke:#000000;stroke-width:0.493655;stroke-opacity:1"
       d="m 41.043963,261.06772 c -4.223686,-18.83566 -6.565722,-30.99673 -8.564248,-57.27349 -0.928165,-12.20345 1.444428,-36.68758 1.444428,-36.68758 0,0 1.28533,-13.76045 16.275093,-21.57392 7.194123,-3.75003 21.573966,0 21.573966,0 0,0 14.926537,3.25128 21.573954,6.81278 16.305494,8.73608 27.408414,14.85924 41.633974,21.19552 9.63129,4.28991 19.29867,8.77717 29.52226,11.35468 12.57913,3.17143 25.64799,5.53835 38.60604,4.92037 8.00992,-0.38198 16.11623,-2.09252 23.46638,-5.29885 4.13202,-1.80244 19.68155,-8.32675 19.68155,-8.32675 0,0 13.64919,-5.42374 20.81697,-6.81286 5.58602,-1.08258 17.03209,-1.13546 17.03209,-1.13546 0,0 19.32364,0.8075 27.6298,17.41054 4.66057,9.31593 7.80103,21.2104 9.08379,29.90079 1.30298,8.8272 11.19502,16.36016 19.30299,18.54604 7.82602,2.1098 34.82116,1.51396 34.82116,1.51396 l 0.3785,37.47052 c 0,0 -14.19816,-0.60637 -21.19548,0.37854 -8.8572,1.24662 -16.01128,5.3161 -22.70942,10.21924 -6.25957,4.58205 -7.41815,10.41659 -9.84078,16.27508 -4.34846,10.51565 13.75494,18.92778 21.57396,27.81905 7.3338,8.33952 16.69284,17.11004 15.13964,27.4406 -1.53889,10.23494 -12.40764,18.63265 -22.33095,21.57387 -17.12797,5.07682 -52.61015,-10.21912 -52.61015,-10.21912 L 245.87886,354.838 c 0,0 -29.09548,-8.85875 -43.14794,-9.84075 -14.05241,-0.98197 -29.1417,0.12326 -40.11999,3.40639 -9.76393,2.91988 -22.41714,9.06425 -28.38678,11.35471 -5.4299,2.0834 -15.89659,7.19133 -15.89659,7.19133 0,0 -12.6944,4.67894 -19.303042,4.54189 C 84.623512,371.19306 76.188346,356.57109 70.637703,344.99725 64.969015,333.17724 58.398666,318.98995 54.362625,305.25576 50.546576,292.27024 44.410067,276.0788 41.043963,261.06772 Z"
       id="path27"
       sodipodi:nodetypes="ascscssssscscsssccssssascczsscsssa" /><path
       style="fill:#000000;fill-opacity:0;stroke:#000000;stroke-width:0.502571;stroke-dasharray:none;stroke-opacity:1"
       d="m 4.21687,60.324242 251.85172,5.07931 c 0,0 11.40157,0.59169 17.41051,-1.08816 7.76078,-2.1696 6.89309,-7.16694 11.15358,-6.52896 26.31136,3.93999 78.34734,11.6977 78.34734,11.6977 0,0 6.79187,-6.44243 10.33749,-10.60954 0.97021,-1.14029 7.82478,0.0861 13.32989,4.0806 5.17364,3.75403 10.06549,16.32235 10.06549,16.32235 0,0 1.04707,7.15286 -0.27206,10.3375 -1.8655,4.50375 -6.88453,9.71444 -10.06545,10.609508 -22.88617,6.43985 -46.24666,7.88915 -46.24666,7.88915 0,0 -41.27046,5.8213 -42.7102,6.80098 -2.44081,1.66089 -4.43726,7.29391 -6.62507,5.31161 -4.18056,-3.78786 -11.60155,-13.4728 -11.60155,-13.4728 0,0 -9.59109,-7.756818 -17.41051,-9.249318 -1.87051,-0.35701 -5.7128,0 -5.7128,0 L 4.70432,97.368762 Z"
       id="path32"
       sodipodi:nodetypes="ccsscsscsscsscsccc" /></g></svg>
