<?xml version="1.0" encoding="UTF-8" standalone="no"?>
<!-- Created with Inkscape (http://www.inkscape.org/) -->

<svg
   width="40cm"
   height="40cm"
   viewBox="0 0 400 400"
   version="1.1"
   id="svg5"
   inkscape:version="1.1.2 (0a00cf5339, 2022-02-04)"
   sodipodi:docname="desenho fLLYING v.svg"
   xmlns:inkscape="http://www.inkscape.org/namespaces/inkscape"
   xmlns:sodipodi="http://sodipodi.sourceforge.net/DTD/sodipodi-0.dtd"
   xmlns="http://www.w3.org/2000/svg"
   xmlns:svg="http://www.w3.org/2000/svg">
  <sodipodi:namedview
     id="namedview7"
     pagecolor="#ffffff"
     bordercolor="#666666"
     borderopacity="1.0"
     inkscape:pageshadow="2"
     inkscape:pageopacity="0.0"
     inkscape:pagecheckerboard="0"
     inkscape:document-units="mm"
     showgrid="false"
     showguides="true"
     inkscape:guide-bbox="true"
     inkscape:zoom="0.20993242"
     inkscape:cx="130.99453"
     inkscape:cy="490.63407"
     inkscape:window-width="1024"
     inkscape:window-height="699"
     inkscape:window-x="0"
     inkscape:window-y="32"
     inkscape:window-maximized="1"
     inkscape:current-layer="layer1"
     width="400mm"
     units="cm"
     inkscape:lockguides="true" />
  <defs
     id="defs2" />
  <g
     inkscape:label="Camada 1"
     inkscape:groupmode="layer"
     id="layer1">
    <path
       style="fill:none;stroke:#000000;stroke-width:0.264583px;stroke-linecap:butt;stroke-linejoin:miter;stroke-opacity:1"
       d="m 11.771222,13.020745 c 20.024102,15.24499 28.904815,20.86776 43.059404,31.69844 20.603243,15.765 49.114504,33.33371 49.015184,58.867545 -0.0984,25.29822 -49.015184,57.94479 -49.015184,57.94479 0,0 -62.4070829,38.84235 -44.630278,33.41995 24.11373,-7.35533 44.630278,-11.31869 44.630278,-11.31869 l 49.015184,-17.01834 136.79693,-45.16006 9.80303,-4.8502 c 0,0 0.0441,-17.139054 0.0564,-22.322593 0.0124,-5.173037 -0.0123,-0.04672 -0.0123,-0.04672 L 103.84581,41.584515 54.830626,23.363335 c 0,0 -61.9627865,-24.7343429 -43.059404,-10.34259 z"
       id="path1383"
       sodipodi:nodetypes="ssscsccccscccs" />
    <path
       style="fill:none;stroke:#000000;stroke-width:0.264583px;stroke-linecap:butt;stroke-linejoin:miter;stroke-opacity:1"
       d="m 14.350362,215.51795 196.610888,2.75389 c 0,0 10.71274,-4.26468 10.71276,-9.71116 1e-5,-3.44626 39.60353,15.48266 51.98846,20.75106 5.95505,2.5332 19.53506,10.44202 19.53506,10.44202 l -19.53506,5.35638 -51.98846,-8.61181 -10.71276,-0.65276 -196.654948,2.0417 0.0441,-22.36932"
       id="path2629"
       sodipodi:nodetypes="ccsscccccc" />
  </g>
</svg>
