<?xml version="1.0" encoding="UTF-8" standalone="no"?>
<!-- Created with Inkscape (http://www.inkscape.org/) -->

<svg
   width="40cm"
   height="40cm"
   viewBox="0 0 400 400"
   version="1.1"
   id="svg5"
   xml:space="preserve"
   inkscape:export-filename="bitmap.svg"
   inkscape:export-xdpi="96"
   inkscape:export-ydpi="96"
   xmlns:inkscape="http://www.inkscape.org/namespaces/inkscape"
   xmlns:sodipodi="http://sodipodi.sourceforge.net/DTD/sodipodi-0.dtd"
   xmlns="http://www.w3.org/2000/svg"
   xmlns:svg="http://www.w3.org/2000/svg"><sodipodi:namedview
     id="namedview7"
     pagecolor="#ffffff"
     bordercolor="#000000"
     borderopacity="0.25"
     inkscape:showpageshadow="2"
     inkscape:pageopacity="0.0"
     inkscape:pagecheckerboard="0"
     inkscape:deskcolor="#d1d1d1"
     inkscape:document-units="mm"
     showgrid="false"
     showguides="false"><sodipodi:guide
       position="10.548483,100.16735"
       orientation="1,0"
       id="guide213"
       inkscape:locked="false" /><sodipodi:guide
       position="65.528457,14.18123"
       orientation="1,0"
       id="guide215"
       inkscape:locked="false" /><sodipodi:guide
       position="136.17133,37.196103"
       orientation="1,0"
       id="guide217"
       inkscape:locked="false" /><sodipodi:guide
       position="233.34524,47.744586"
       orientation="1,0"
       id="guide219"
       inkscape:locked="false" /><sodipodi:guide
       position="258.59767,142.36128"
       orientation="1,0"
       id="guide221"
       inkscape:locked="false" /><sodipodi:guide
       position="245.49197,101.76561"
       orientation="1,0"
       id="guide223"
       inkscape:locked="false" /><sodipodi:guide
       position="191.47095,168.25302"
       orientation="1,0"
       id="guide225"
       inkscape:locked="false" /><sodipodi:guide
       position="164.62027,32.401337"
       orientation="1,0"
       id="guide227"
       inkscape:locked="false" /><sodipodi:guide
       position="103.24728,181.67836"
       orientation="1,0"
       id="guide229"
       inkscape:locked="false" /><sodipodi:guide
       position="254.25351,109.13026"
       orientation="0,1"
       id="guide1386"
       inkscape:locked="false"
       inkscape:label=""
       inkscape:color="rgb(0,134,229)" /><sodipodi:guide
       position="264.38077,81.866131"
       orientation="0,1"
       id="guide1388"
       inkscape:locked="false"
       inkscape:label=""
       inkscape:color="rgb(0,134,229)" /></sodipodi:namedview><defs
     id="defs2" /><g
     inkscape:label="Camada 1"
     inkscape:groupmode="layer"
     id="layer1"><path
       style="fill:none;stroke:#000000;stroke-width:0.368221;stroke-opacity:1"
       d="m 269.62567,1.5784038 c 124.88916,-2.781881 125.01022,68.3995972 126.21219,71.9424862 5.67414,16.72496 -1.10075,35.7913 -6.61725,52.56892 -5.63333,17.13287 -22.4714,29.61946 -26.41856,47.21748 -2.93121,13.06845 0.20051,26.93862 2.76315,40.08431 2.40282,12.32586 10.20644,23.33877 11.71592,35.80559 2.35456,19.44642 -0.23377,39.46263 -4.41749,58.59906 -1.38555,6.33752 -3.13902,12.87002 -6.76899,18.24657 -5.26331,7.7958 -23.70948,27.96023 -20.87037,18.99269 1.5685,-4.95426 0.37616,-18.7271 0.37616,-18.7271 0,0 -3.37975,-11.91238 -6.90162,-16.19496 -4.75543,-5.78246 -12.74902,-10.17121 -20.22488,-9.76798 -6.7251,0.36277 -11.80902,4.96034 -15.54935,10.5611 -3.18324,4.76659 -4.58889,17.65938 -4.58889,17.65938 l -38.04902,1.86935 c 0,0 -1.79777,-11.83419 -2.35241,-17.49366 -1.07644,-10.98348 -10.94349,-23.76464 -21.32315,-24.41866 -12.59809,-0.79382 -22.19865,29.64761 -26.68748,29.86416 -3.3717,0.16265 -31.3726,-32.73305 -30.36838,-59.34037 0.47101,-12.47948 2.43923,-24.06604 4.30828,-36.41374 2.04271,-13.49489 8.54533,-27.22112 5.63607,-40.55607 -3.7462,-17.17103 -19.37181,-31.21649 -28.34946,-44.45458 -9.94831,-14.66939 -11.49168,-34.84008 -9.05711,-52.396638 2.29293,-16.535201 14.54178,-81.3532182 117.53264,-83.6473082 z"
       id="path390"
       sodipodi:nodetypes="ssssssssscsssccssssssssss" /><path
       style="fill:none;stroke:#000000;stroke-width:0.381109;stroke-opacity:1"
       d="M 41.03233,1.5091976 170.14463,314.42224 c 2.09961,5.80526 2.69916,8.84195 6.51826,13.30679 4.54728,5.31606 7.61319,15.79546 14.80941,29.40695 8.10055,15.32204 6.51863,20.28724 16.22244,25.07265 4.15475,2.04893 -22.41167,12.01569 -36.65615,15.48092 -4.78812,1.1648 -9.2578,-9.41149 -11.61474,-13.73903 -8.18855,-15.03487 -1.85846,-3.91593 -11.94757,-21.51526 -4.62416,-8.06632 -6.51637,-11.25136 -8.57258,-15.58001 -2.24974,-4.73601 -1.87968,-2.7786 -1.77971,-9.70461 L 4.8790673,16.218708 Z"
       id="path1390"
       sodipodi:nodetypes="ccsssssssccc" /><path
       style="fill:none;stroke:#000000;stroke-width:0.368221;stroke-opacity:1"
       d="m 269.62567,1.5784038 c 124.88916,-2.781881 125.01022,68.3995972 126.21219,71.9424862 5.67414,16.72496 -1.10075,35.7913 -6.61725,52.56892 -5.63333,17.13287 -22.4714,29.61946 -26.41856,47.21748 -2.93121,13.06845 0.20051,26.93862 2.76315,40.08431 2.40282,12.32586 10.20644,23.33877 11.71592,35.80559 2.35456,19.44642 -0.23377,39.46263 -4.41749,58.59906 -1.38555,6.33752 -3.13902,12.87002 -6.76899,18.24657 -5.26331,7.7958 -23.70948,27.96023 -20.87037,18.99269 1.5685,-4.95426 0.37616,-18.7271 0.37616,-18.7271 0,0 -3.37975,-11.91238 -6.90162,-16.19496 -4.75543,-5.78246 -12.74902,-10.17121 -20.22488,-9.76798 -6.7251,0.36277 -11.80902,4.96034 -15.54935,10.5611 -3.18324,4.76659 -4.58889,17.65938 -4.58889,17.65938 l -38.04902,1.86935 c 0,0 -1.79777,-11.83419 -2.35241,-17.49366 -1.07644,-10.98348 -10.94349,-23.76464 -21.32315,-24.41866 -12.59809,-0.79382 -22.19865,29.64761 -26.68748,29.86416 -3.3717,0.16265 -31.3726,-32.73305 -30.36838,-59.34037 0.47101,-12.47948 2.43923,-24.06604 4.30828,-36.41374 2.04271,-13.49489 8.54533,-27.22112 5.63607,-40.55607 -3.7462,-17.17103 -19.37181,-31.21649 -28.34946,-44.45458 -9.94831,-14.66939 -11.49168,-34.84008 -9.05711,-52.396638 2.29293,-16.535201 14.54178,-81.3532182 117.53264,-83.6473082 z"
       id="path1392"
       sodipodi:nodetypes="ssssssssscsssccssssssssss" /><path
       style="fill:none;stroke:#000000;stroke-width:0.381109;stroke-opacity:1"
       d="M 41.03233,1.5091976 170.14463,314.42224 c 2.09961,5.80526 2.69916,8.84195 6.51826,13.30679 4.54728,5.31606 7.61319,15.79546 14.80941,29.40695 8.10055,15.32204 6.51863,20.28724 16.22244,25.07265 4.15475,2.04893 -22.41167,12.01569 -36.65615,15.48092 -4.78812,1.1648 -9.2578,-9.41149 -11.61474,-13.73903 -8.18855,-15.03487 -1.85846,-3.91593 -11.94757,-21.51526 -4.62416,-8.06632 -6.51637,-11.25136 -8.57258,-15.58001 -2.24974,-4.73601 -1.87968,-2.7786 -1.77971,-9.70461 L 4.8790673,16.218708 Z"
       id="path1394"
       sodipodi:nodetypes="ccsssssssccc" /></g></svg>
