<?xml version="1.0" encoding="UTF-8" standalone="no"?>
<!-- Created with Inkscape (http://www.inkscape.org/) -->

<svg
   width="600mm"
   height="400mm"
   viewBox="0 0 600 400"
   version="1.1"
   id="svg5"
   inkscape:version="1.1.2 (0a00cf5339, 2022-02-04)"
   sodipodi:docname="guitarraBracoStratoMeio.svg"
   xmlns:inkscape="http://www.inkscape.org/namespaces/inkscape"
   xmlns:sodipodi="http://sodipodi.sourceforge.net/DTD/sodipodi-0.dtd"
   xmlns="http://www.w3.org/2000/svg"
   xmlns:svg="http://www.w3.org/2000/svg">
  <sodipodi:namedview
     id="namedview7"
     pagecolor="#ffffff"
     bordercolor="#666666"
     borderopacity="1.0"
     inkscape:pageshadow="2"
     inkscape:pageopacity="0.0"
     inkscape:pagecheckerboard="0"
     inkscape:document-units="mm"
     showgrid="false"
     width="600mm"
     inkscape:zoom="0.21603185"
     inkscape:cx="1298.4197"
     inkscape:cy="870.24206"
     inkscape:window-width="1024"
     inkscape:window-height="699"
     inkscape:window-x="0"
     inkscape:window-y="32"
     inkscape:window-maximized="1"
     inkscape:current-layer="layer1" />
  <defs
     id="defs2" />
  <g
     inkscape:label="Camada 1"
     inkscape:groupmode="layer"
     id="layer1">
    <path
       style="fill:none;stroke:#000000;stroke-width:0.264583px;stroke-linecap:butt;stroke-linejoin:miter;stroke-opacity:1"
       d="m 523.72322,128.03652 v 15.12902 l -330.37439,18.65155 v 28.30282 l 330.37439,-12.02617 v 22.1901 l -109.34799,1.57956 -108.48483,0.65431 -69.3914,0.51692 -30.86311,-0.52423 -14.221,0.60462 -13.28052,-0.0277 -7.74005,3.87466 -9.66363,7.38123 -10.08922,7.50961 -7.37257,0.50137 -13.86889,-0.82497 -11.94278,-2.49496 -10.12786,0.92471 -19.32771,2.30808 -5.85807,-1.64265 -6.9294,-1.81588 -1.49884,5.71462 -6.09012,5.68407 -13.77671,8.07475 -14.53028,3.56595 -10.66999,-0.003 -6.44673,-7.46001 -6.85829,-17.76129 -2.62713,-13.05721 1.47852,-8.82029 16.79178,-9.17252 25.28158,-9.24716 35.07972,-10.74562 30.61245,-10.63759 18.78151,-7.1916 19.62047,-10.58832 8.988,-2.61314 5.92273,0.7269 4.5266,6.81865 -1.92629,4.00773 5.38048,3.7908 24.93635,0.90629 41.23754,-2.11771 62.17518,-3.90577 87.17396,-5.05213 71.21944,-6.91929 z"
       id="path6461"
       sodipodi:nodetypes="cccccccccccccccccccccccccccccccccccccccccccccccc" />
  </g>
</svg>
